<svg id="Capa_1" data-name="Capa 1" xmlns="http://www.w3.org/2000/svg" viewBox="0 0 50 39.31"><defs><style>.cls-1{fill:#fff;}</style></defs><path class="cls-1" d="M4.2,39.12c2.23,0,4.19.13,6.12-.06a2.92,2.92,0,0,0,1.92-1.4C15.84,30.8,19.48,24,22.83,17a11.75,11.75,0,0,0-5.47-15.7,11.92,11.92,0,0,0-15.88,5A11.75,11.75,0,0,0,6.24,22.38C8,23.34,8.09,24.26,7.61,26,6.39,30.2,5.38,34.51,4.2,39.12Zm26.1-.29c6.93,1,6.94,1,9.69-4.4,3-5.79,6-11.54,8.84-17.42a11.86,11.86,0,0,0-5.7-15.87,12,12,0,0,0-10.8,21.34l1.86,1.07C32.89,28.67,31.62,33.66,30.3,38.83Z" transform="translate(0 0)"/><path class="cls-1" d="M4.2,39.12C5.38,34.51,6.39,30.2,7.61,26c.48-1.69.4-2.61-1.37-3.57A11.75,11.75,0,0,1,1.48,6.27a11.92,11.92,0,0,1,15.88-5A11.75,11.75,0,0,1,22.83,17c-3.35,7-7,13.82-10.59,20.68a2.92,2.92,0,0,1-1.92,1.4C8.39,39.25,6.43,39.12,4.2,39.12Z" transform="translate(0 0)"/><path class="cls-1" d="M30.3,38.83c1.32-5.17,2.59-10.16,3.89-15.28l-1.86-1.07A12,12,0,1,1,48.83,17C46,22.89,43,28.64,40,34.43,37.24,39.79,37.23,39.79,30.3,38.83Z" transform="translate(0 0)"/></svg>