<svg id="Capa_1" data-name="Capa 1" xmlns="http://www.w3.org/2000/svg" viewBox="0 0 149.54 150.04"><defs><style>.cls-1{fill:#9b9b9b;}</style></defs><path class="cls-1" d="M0,150c1.85-6.78,3.61-13.29,5.39-19.79,1.54-5.61,3.15-11.2,4.58-16.83a5.09,5.09,0,0,0-.39-3.37A74.65,74.65,0,0,1,.81,68.32C3,38.32,24.51,11.77,53.4,3.19a74.46,74.46,0,0,1,94.31,55.05c9.26,40.33-17.63,81.49-58.28,89.21a74.51,74.51,0,0,1-48.71-6.88,4.72,4.72,0,0,0-3-.27c-12,3.08-23.93,6.24-35.9,9.38C1.33,149.8.86,149.87,0,150Zm17.84-17.66c.65-.12,1-.18,1.41-.27,6.67-1.74,13.34-3.44,20-5.26a4.4,4.4,0,0,1,3.78.56,60.71,60.71,0,0,0,39.33,8.49A61.91,61.91,0,1,0,64.54,13.4c-41.53,7.17-64.08,53-44,90.1,2.63,4.86,3.28,8.87,1.45,13.9C20.28,122.19,19.25,127.22,17.84,132.38Z" transform="translate(0 0)"/><path class="cls-1" d="M94.63,112.87c-3.07-.74-6.2-1.3-9.21-2.25C67.3,104.87,54,93.18,44,77.23c-3.13-5-6.17-10-7.31-15.93-1.64-8.45.63-15.65,7-21.47,2.57-2.33,7.3-3,10.27-1.19a6.89,6.89,0,0,1,2.71,3.09c2,4.81,3.79,9.69,5.4,14.63a5.42,5.42,0,0,1-.63,3.93A37,37,0,0,1,57.63,65c-2.23,2.64-2.27,3.51-.58,6.49a53.49,53.49,0,0,0,23,21.64c3.3,1.67,4.42,1.49,6.87-1.21,1.72-1.9,3.44-3.82,5-5.84,1.1-1.4,2.41-1.86,3.9-1.1,5.42,2.76,10.83,5.54,16.11,8.56.78.44,1.23,2.22,1.13,3.32C112.18,106.17,104.62,112.55,94.63,112.87Z" transform="translate(0 0)"/></svg>