<svg id="Capa_1" data-name="Capa 1" xmlns="http://www.w3.org/2000/svg" viewBox="0 0 150.09 150"><defs><style>.cls-1{fill:#f7f99b;}</style></defs><path class="cls-1" d="M150.05,75.17A74.86,74.86,0,0,1,74.14,150C32.85,149.67-.28,116,0,74.25.18,33.27,34.05-.13,75.38,0A75.14,75.14,0,0,1,150.05,75.17Zm-41.4-.07h0c0-8.84.11-17.68,0-26.52A17.85,17.85,0,0,0,91.42,31.11q-13.83-.27-27.65,0A17.56,17.56,0,0,0,46.9,46.19c-.52,4.2-.29,8.49-.35,12.74,0,2,1,3.2,2.65,3.15s2.51-1.21,2.52-3.13c0-3.24,0-6.47,0-9.71a12.88,12.88,0,0,1,13.05-13q12.85-.06,25.71,0a12.81,12.81,0,0,1,13,12.93q.08,25.88,0,51.74a12.82,12.82,0,0,1-13,12.91q-12.85.09-25.71,0a12.89,12.89,0,0,1-13-13c0-3.23,0-6.47,0-9.7,0-1.92-1-3.08-2.53-3.11s-2.63,1.16-2.63,3.17q0,4.6,0,9.21c0,10.8,7.88,18.63,18.7,18.65q12.3,0,24.58,0c11,0,18.81-7.82,18.83-18.85Q108.67,87.64,108.65,75.1Zm-35-3-.2.36H34.88a8.62,8.62,0,0,0-1.61,0,2.57,2.57,0,0,0,0,5.09,9.57,9.57,0,0,0,1.61,0H74c-2.11,2.09-3.89,3.81-5.63,5.57-1.35,1.36-1.47,2.86-.37,4s2.63,1.06,4-.27q4.89-4.83,9.72-9.71c1.5-1.52,1.49-2.81,0-4.34q-4.77-4.83-9.59-9.6c-1.43-1.42-3-1.52-4.1-.34s-1,2.61.41,4C70.13,68.64,71.91,70.35,73.67,72.08Z" transform="translate(0.05)"/></svg>