<svg id="Capa_1" data-name="Capa 1" xmlns="http://www.w3.org/2000/svg" viewBox="0 0 130.16 150"><defs><style>.cls-1{fill:#f7f99b;}</style></defs><path class="cls-1" d="M98.15,64c3.82-3,8-3.9,12.5-2.37a11.74,11.74,0,0,1,7.81,7.62c3.57,10.71,7.26,21.39,10.41,32.23a32.24,32.24,0,0,1-21.29,40c-7.24,2.37-14.47,4.77-21.76,7-6.15,1.86-12.44,2.3-18.66.3a30.9,30.9,0,0,1-6.64-3,70.88,70.88,0,0,1-20.21-17.85,30.21,30.21,0,0,1-6.07-13.77,17.78,17.78,0,0,1,9.65-18.95l1.18-.62L41.3,82.93Q35.92,66.32,30.51,49.72a12.76,12.76,0,0,1,24.1-8.42C56.86,48,59,54.73,61.19,61.44c.09.27.19.53.29.83,5.45-3.73,10.83-3.7,16.24.1A12.88,12.88,0,0,1,98.15,64Zm-50.5,38.49a9.71,9.71,0,0,0-5.31,10.67,24.4,24.4,0,0,0,5.37,11,65.38,65.38,0,0,0,17.74,15A18.12,18.12,0,0,0,69,140.72a22.89,22.89,0,0,0,14.36-.13c7.26-2.21,14.46-4.59,21.67-7,15.21-5,19.13-20.07,15.75-30.87-3.19-10.17-6.56-20.28-9.86-30.41a4.6,4.6,0,1,0-8.74,2.85c.43,1.38,1,2.73,1.3,4.14a5.57,5.57,0,0,1,0,2.47,3.87,3.87,0,0,1-3.8,2.87,4,4,0,0,1-3.94-2.84c-1.32-4-2.61-8-3.91-12a7.39,7.39,0,0,0-.47-1.21,4.58,4.58,0,0,0-5.74-2.11,4.53,4.53,0,0,0-2.71,5.54c.92,3,2,6,2.88,9A5.65,5.65,0,0,1,86,83.67a3.91,3.91,0,0,1-3.81,3.1,4.07,4.07,0,0,1-4-3c-1.41-4.3-2.78-8.6-4.2-12.89a4.59,4.59,0,1,0-8.74,2.78c1,3.23,2.1,6.44,3.12,9.67a4.08,4.08,0,1,1-7.78,2.47q-3.49-10.69-7-21.4Q50.29,54.34,47,44.22A4.59,4.59,0,1,0,38.24,47q3.25,10.14,6.56,20.25Q51.22,87,57.6,106.74a5.59,5.59,0,0,1,.19,2.63A3.92,3.92,0,0,1,54,112.48a4.07,4.07,0,0,1-4-2.88C49.18,107.24,48.43,104.87,47.65,102.46Z" transform="translate(0 0)"/><path class="cls-1" d="M10.91,14.81A4.48,4.48,0,0,1,13.57,11,3.9,3.9,0,0,1,18,12c2.76,3.28,5.5,6.58,8.17,9.93a4,4,0,0,1-6.21,5c-2.72-3.23-5.41-6.5-8-9.81A9.74,9.74,0,0,1,10.91,14.81Z" transform="translate(0 0)"/><path class="cls-1" d="M54.07,23.06a4,4,0,0,1,1.45-3.19c3.19-2.64,6.37-5.28,9.6-7.89a4,4,0,1,1,5,6.21q-4.74,4-9.53,7.84a4,4,0,0,1-6.57-3Z" transform="translate(0 0)"/><path class="cls-1" d="M16,46.09l-9.9-1-2.42-.25a4,4,0,0,1,.57-8c4.24.36,8.48.76,12.71,1.24a3.92,3.92,0,0,1,3.4,4.32A4,4,0,0,1,16,46.09Z" transform="translate(0 0)"/><path class="cls-1" d="M45.41,4.63C45,8.49,44.64,12.73,44.17,17a3.92,3.92,0,0,1-4.34,3.37,4,4,0,0,1-3.58-4.27q.55-6.18,1.2-12.36A4,4,0,0,1,41.81,0C44,.19,45.51,2,45.41,4.63Z" transform="translate(0 0)"/></svg>