<svg id="Capa_1" data-name="Capa 1" xmlns="http://www.w3.org/2000/svg" viewBox="0 0 150 140.85"><defs><style>.cls-1{fill:#f7f99b;}</style></defs><path class="cls-1" d="M103.18,36.26a36,36,0,0,1,4.53,0c1.55.08,3.09.23,4.61.46a52.61,52.61,0,0,1,8,1.94c.23.07.55.32.69.14s-.13-.51-.25-.74a92.36,92.36,0,0,0-5.59-8.91,82.09,82.09,0,0,0-6.84-8.39A92,92,0,0,0,98,11.34a22.28,22.28,0,0,0-2.89-2.11h0a.54.54,0,0,0-.4-.29.47.47,0,0,0-.3-.21A.53.53,0,0,0,94,8.45a.54.54,0,0,0-.3-.21.3.3,0,0,0-.3-.19h0a.32.32,0,0,0-.3-.2h0A10.77,10.77,0,0,0,91,6.55a.19.19,0,0,0-.2-.11A1.44,1.44,0,0,0,90.12,6h0a1.27,1.27,0,0,0-.71-.38l-.2-.12a.57.57,0,0,0-.39-.2h0a.17.17,0,0,0-.2-.1h0a1.42,1.42,0,0,0-.8-.4h0a.87.87,0,0,0-.6-.3s0,0-.06,0a10,10,0,0,0-2.14-1l-.15-.06a2.73,2.73,0,0,0-.82-.36,32.69,32.69,0,0,0-5-1.6l-.15,0c-.11,0-.21-.1-.32-.13A39.82,39.82,0,0,0,70.89.06,29,29,0,0,0,60.62,1.14,11,11,0,0,0,58.2,2h0a7.82,7.82,0,0,0-2,.9h0a13.89,13.89,0,0,0-3,1.7h0a2.23,2.23,0,0,0-.88.6h0a.38.38,0,0,0-.3.19h0a.57.57,0,0,0-.4.29h0a2.53,2.53,0,0,0-.73.57l-.16.12a1,1,0,0,0-.51.42l-.09.09a1.43,1.43,0,0,0-.61.51l-.16.14a.53.53,0,0,0-.35.32h0a.17.17,0,0,0-.14.14l-.1.11a.44.44,0,0,0-.31.28h0l-.1.09h0l-.1.09h0l-.1.1-.2.19-.1.11a.08.08,0,0,0,.07,0,.08.08,0,0,1-.07,0l-.1.09-.1.11h0a.09.09,0,0,1,0,.07.09.09,0,0,0,0-.07l-.1.1h0l-.1.1h0l-.1.1-.1.1a4.94,4.94,0,0,0-1,1.1h0l-.09.11L46,11a.56.56,0,0,0-.32.37h0a1.56,1.56,0,0,0-.49.59h0L45.1,12h0a1.88,1.88,0,0,0-.6.79h0a5.88,5.88,0,0,0-1.1,1.48h0a4.33,4.33,0,0,0-.79,1.19h0a.35.35,0,0,0-.19.3h0c-.25.29-.67.73-.52.93s.68-.06,1-.13l-.09-.05.09.05.19,0c.15,0,.3,0,.44-.06,1.87-.38,3.77-.6,5.67-.8a56.65,56.65,0,0,1,6.77-.2c1.31,0,2.62.12,3.92.28l3.31.4h.2c1,.22,2.11.42,3.16.67,1.38.33,2.75.71,4.13,1.07l0,0h0a23.07,23.07,0,0,0,2.26.76.65.65,0,0,0,.36.12,1.34,1.34,0,0,0,.74.27.06.06,0,0,0,.07,0,.1.1,0,0,0,.13.06l.17.05a3.05,3.05,0,0,0,1.2.51h0a.46.46,0,0,0,.41.19.41.41,0,0,0,.41.18.06.06,0,0,0,.06,0,1.71,1.71,0,0,0,.83.38h0a7.91,7.91,0,0,0,1.71.88.09.09,0,0,0,.07,0,4.22,4.22,0,0,0,.93.57,36.92,36.92,0,0,1,4.28,2.84c-1.92-.57-3.77-1.34-5.7-1.89-1.39-.39-2.76-.85-4.19-1.12l-.19,0a18.08,18.08,0,0,0-3.1-.7.68.68,0,0,0-.4-.07,6.28,6.28,0,0,0-1.6-.3l-.2,0a26.79,26.79,0,0,0-3.09-.47,62.2,62.2,0,0,0-8.63-.3A4.26,4.26,0,0,0,56,20l-.2,0a5,5,0,0,0-.55,0,56.71,56.71,0,0,0-6,.73,27.46,27.46,0,0,0-3.45.72l-.15,0a31,31,0,0,0-3.45.85,2.87,2.87,0,0,0-1.1.41l-.15.05a.22.22,0,0,0-.24.07s0,0-.06,0A30.86,30.86,0,0,0,37,24.13a18.12,18.12,0,0,0-2.66,1.09.06.06,0,0,0-.07,0,2.08,2.08,0,0,0-.9.39h0a4.82,4.82,0,0,0-1.39.61h0l-.21.1a1.06,1.06,0,0,0-.6.29h0a.43.43,0,0,0-.33.17,0,0,0,0,0-.06,0,5.14,5.14,0,0,0-1.61.79h0a.16.16,0,0,0-.19.1h0a16.24,16.24,0,0,0-2.78,1.51h0a.36.36,0,0,0-.31.17h0a.8.8,0,0,0-.5.29l.18,0-.18,0a.14.14,0,0,1-.13.12.14.14,0,0,0,.13-.12c-.09,0-.16,0-.19.11h0a.36.36,0,0,0-.3.19h0a.34.34,0,0,0-.29.2h0l-.13.07a.06.06,0,0,0-.06,0,3.46,3.46,0,0,0-1.1.71h0a.79.79,0,0,0-.49.3h0a1.27,1.27,0,0,0-.59.41h0a.34.34,0,0,0-.3.19h0a.34.34,0,0,0-.3.19h0a.33.33,0,0,0-.29.19h0a.49.49,0,0,0-.38.35c-.4,1.25-.89,2.48-1.21,3.76a.06.06,0,0,0,0,.06c-.27.8-.57,1.59-.83,2.39-.39,1.22-.86,2.41-1.17,3.65,0,0,0,0,0,.05A27.05,27.05,0,0,0,16.56,46a4.53,4.53,0,0,0,1-1.19h0a6.78,6.78,0,0,0,1.09-1.3l.19-.21a1,1,0,0,0,.41-.49h0l.09-.11a.72.72,0,0,0,.33-.36,4.17,4.17,0,0,0,1-1,9.72,9.72,0,0,0,1.2-1.2,2.61,2.61,0,0,0,.85-.77A.92.92,0,0,0,23,39a.68.68,0,0,0,.42-.38h0l.12-.1a1,1,0,0,0,.17-.1A43.4,43.4,0,0,1,34,31.75a45.79,45.79,0,0,1,10.09-3.28.61.61,0,0,1,.72.26,35.56,35.56,0,0,0,9.82,9.47A25,25,0,0,0,59,40.48l.15.07a.06.06,0,0,0,.06,0l.14.06h0a.45.45,0,0,0,.39.17l.1,0a.3.3,0,0,0,.29.12s0,0,.06,0l.15.07a0,0,0,0,0,.06,0l.14.06a.42.42,0,0,0,.3.1l0,0h0l0,0h0a.24.24,0,0,0,.23.1,0,0,0,0,0,0,0l.15.05h0a1.14,1.14,0,0,0,.69.2h0a5.33,5.33,0,0,0,1.79.51l.21,0a1.2,1.2,0,0,0,.69.16l.21,0a25.9,25.9,0,0,0,5.88.7,44.11,44.11,0,0,0,8.5-.67,60.35,60.35,0,0,0,8-1.78c2.44-.76,4.72-1.9,7.13-2.73A34,34,0,0,1,103.18,36.26ZM74.05,22.37s.06,0,.08,0,0,0-.08,0Z" transform="translate(0 0)"/><path class="cls-1" d="M77.79,133.92l-.89,0a48.2,48.2,0,0,1-10.71-1.09A44.18,44.18,0,0,1,47.74,124a.58.58,0,0,1-.24-.71,37.39,37.39,0,0,0,1.19-7.64,32.26,32.26,0,0,0-.48-7.6,29.39,29.39,0,0,0-3.9-10.36.12.12,0,0,0-.08-.13,2.2,2.2,0,0,0-.41-.67.12.12,0,0,0-.09-.13l-.12-.17a.09.09,0,0,0-.08-.12.11.11,0,0,0,0,.08.11.11,0,0,1,0-.08.09.09,0,0,1-.08,0,.09.09,0,0,0,.08,0l-.09-.13s0,0,0,0a.12.12,0,0,0-.08-.14,1,1,0,0,0-.27-.39,15.54,15.54,0,0,0-1.44-2,59.21,59.21,0,0,0-9-8.54,54,54,0,0,0-8.72-5.33,30.73,30.73,0,0,1-6.36-4.61,40.48,40.48,0,0,1-6.58-8,50.59,50.59,0,0,1-4-7.71,8,8,0,0,0-.67-1.44c-.12.26-.21.46-.29.65L4.73,62.3A79.6,79.6,0,0,0,1.85,72.47,76.51,76.51,0,0,0,.56,80.3C.28,82.74.08,85.2,0,87.66,0,90.54,0,93.42.19,96.3a34.47,34.47,0,0,0,.47,4.3l0,.25A20.89,20.89,0,0,0,1.2,104a32,32,0,0,0,1.25,4.71c0,.05,0,.1,0,.15a6,6,0,0,0,.57,1.64s0,0,0,.06a.21.21,0,0,0,.09.23.07.07,0,0,0,0,.07.56.56,0,0,0,.17.44s0,0,0,.06l0,.09.09.21a.64.64,0,0,0,.18.43s0,0,0,.07l.06.14s0,0,0,.06a1.14,1.14,0,0,0,.27.65s0,0,0,.06a2.61,2.61,0,0,0,.49,1.1h0a.26.26,0,0,0,.11.28h0a16.06,16.06,0,0,0,1.49,2.92l.13.27a.09.09,0,0,0,.07.11h0a.18.18,0,0,0,.11.19h0a1.25,1.25,0,0,0,.37.65s0,0,0,0a1.83,1.83,0,0,0,.51.8h0a1,1,0,0,0,.39.6h0a1.82,1.82,0,0,0,.52.79h0a.63.63,0,0,0,.28.41h0a3.46,3.46,0,0,0,.8,1.09h0a.1.1,0,0,0,.09.11h0a.59.59,0,0,0,.31.38h0a1.31,1.31,0,0,0,.49.6h0a.54.54,0,0,0,.32.37l.1.12c0,.06,0,.09.09.1h0l.1.1h0l.1.1.09.11a.81.81,0,0,0,.42.47.07.07,0,0,0,.06,0,.86.86,0,0,0,.4.42l.15.15a2.63,2.63,0,0,0,.87.82l.2.19a1.3,1.3,0,0,0,.49.44l.1.07.11.1h0a1,1,0,0,0,.5.4h0a.59.59,0,0,0,.39.3h0l.11.09a.42.42,0,0,0,.28.21,6.32,6.32,0,0,0,1.62,1.09.05.05,0,0,0,.05,0,.72.72,0,0,0,.44.26h0l.11.07.2.12a.7.7,0,0,0,.49.29s0,0,.06,0a1.05,1.05,0,0,0,.53.28h0a.17.17,0,0,0,.19.1h0a1.11,1.11,0,0,0,.6.3s0,0,.05,0l.15.07s0,0,.05,0a2,2,0,0,0,.84.38l.22.08a.29.29,0,0,0,.28.13l0,0h0a2.12,2.12,0,0,0,.94.36h0a6,6,0,0,0,1.7.59l.25.06a7.91,7.91,0,0,0,2.15.55l.31.07a24.75,24.75,0,0,0,5.07.69,37.55,37.55,0,0,0,6.62-.18,8.48,8.48,0,0,0,2.15-.36,9,9,0,0,0-1.23-.94h0a.87.87,0,0,0-.49-.39h0a6.63,6.63,0,0,0-1.39-1.2l-.4-.39a.21.21,0,0,0-.18-.15l-.09-.07a.49.49,0,0,0-.31-.3h0l-.1-.09h0l-.11-.08-.6-.6a1.31,1.31,0,0,0-.5-.49h0a.14.14,0,0,0-.14-.13l0,0a.16.16,0,0,0-.13-.15c-.37-.36-.74-.73-1.1-1.1l-.1-.1-.1-.1a2.53,2.53,0,0,0-.7-.79l-.2-.21a7,7,0,0,0-1.2-1.4h0a4.77,4.77,0,0,0-1-1.2h0a1.92,1.92,0,0,0-.59-.79h0a.57.57,0,0,0-.29-.39h0a.58.58,0,0,0-.31-.39h0a.34.34,0,0,0-.2-.3l-.07-.11c0-.09,0-.16-.13-.18h0a2,2,0,0,0-.49-.7h0a.37.37,0,0,0-.21-.29h0a1.9,1.9,0,0,0-.48-.73l-.11-.18a1,1,0,0,0-.32-.48l-.12-.2s0-.09-.08-.1h0a.32.32,0,0,0-.18-.31h0a12.89,12.89,0,0,0-1.09-1.82,0,0,0,0,0,0-.06.33.33,0,0,0-.18-.31h0a.56.56,0,0,0-.19-.38l-.12-.2a1.15,1.15,0,0,0-.37-.66,0,0,0,0,0,0,0l-.07-.14a.06.06,0,0,0,0-.06.19.19,0,0,0-.1-.2h0a1.11,1.11,0,0,0-.3-.59h0a.44.44,0,0,0-.2-.39h0A15.19,15.19,0,0,0,23,111a0,0,0,0,0,0-.06,5.73,5.73,0,0,0-.58-1.43.06.06,0,0,0,0-.06,2.77,2.77,0,0,0-.37-1s0,0,0-.06l-1.11-3.29-.11-.4a.46.46,0,0,0-.11-.4l-.05-.22c0-.13,0-.28-.13-.38l0-.2a.1.1,0,0,0-.05-.14,2.21,2.21,0,0,0,0-.25,49.28,49.28,0,0,1-1-6.38,3.68,3.68,0,0,1,0-1.32c.09.19.14.29.18.4.64,1.76,1.28,3.53,2,5.25a34.23,34.23,0,0,0,1.73,3.74l.1.21a1,1,0,0,0,.3.59l.09.21.09.14c0,.12.11.23.16.35a.07.07,0,0,0,.06.1l.1.21a2.4,2.4,0,0,0,.49.9h0a.17.17,0,0,0,.11.19h0l.08.14a0,0,0,0,0,0,0l.08.15a0,0,0,0,0,0,.05l.08.14.11.18a.16.16,0,0,0,.1.18l.11.21a.42.42,0,0,0,.18.31h0a.19.19,0,0,0,.11.19h0a.19.19,0,0,0,.11.2h0a.4.4,0,0,0,.18.31h0a.15.15,0,0,0,.11.18h0a.71.71,0,0,0,.27.44.05.05,0,0,0,0,0,.75.75,0,0,0,.31.5h0a.34.34,0,0,0,.19.3h0a4.45,4.45,0,0,0,.78,1.22l.13.17.08.11h0a1,1,0,0,1,.08.14.05.05,0,0,0,0,0,1.89,1.89,0,0,0,.49.7h0a.3.3,0,0,0,.2.29h0a.33.33,0,0,0,.21.29l.09.11a.35.35,0,0,0,.21.29h0a1.51,1.51,0,0,0,.47.64l.21.27A.35.35,0,0,0,30,116l.08.11.1.11,0,0,0,0,.08.1v0a.16.16,0,0,0,.13.15h0l.09.11h0a.55.55,0,0,0,.31.37h0l.09.11h0a.25.25,0,0,0,.16.21h0a.19.19,0,0,0,.14.16h0l.09.11.09.1a.37.37,0,0,0,.23.28h0a1.7,1.7,0,0,0,.6.7l.09.11a.1.1,0,0,0,.09.11h0l.1.11.1.09a.84.84,0,0,0,.42.47,2,2,0,0,0,.19.22h0a.09.09,0,0,0,.1.1h0l.09.11h0l.1.1h0l.1.1.09.1A6.65,6.65,0,0,0,35,121.64h0A6.6,6.6,0,0,0,36.39,123h0l.1.1h0l.1.1h0a.11.11,0,0,0,.1.1h0l.1.09h0a.09.09,0,0,0,.1.1l.11.1a.28.28,0,0,0,.2.19h0a.35.35,0,0,0,.28.23.7.7,0,0,0,.31.28,2.89,2.89,0,0,0,.91.79h0a.56.56,0,0,0,.38.32h0a1.28,1.28,0,0,0,.61.49h0l.1.09h0a.32.32,0,0,0,.28.22l.1.09a.61.61,0,0,0,.39.31h0l.11.1.11.08a.54.54,0,0,0,.4.3h0a.1.1,0,0,0,.11.09,0,0,0,0,0,0,0,1.45,1.45,0,0,0,.64.48h0a.09.09,0,0,0,.11.08.05.05,0,0,0,.06,0,.36.36,0,0,0,.3.23.07.07,0,0,0,.05,0,2.29,2.29,0,0,0,.87.61h0a.35.35,0,0,0,.29.2h0a.3.3,0,0,0,.29.19h0a1.84,1.84,0,0,0,.7.5c.26.15.52.3.77.46a71.14,71.14,0,0,0,19.76,9,1.41,1.41,0,0,0,1-.06l12-4.72a.93.93,0,0,0,.51-.31Z" transform="translate(0 0)"/><path class="cls-1" d="M149.56,94.47a36.78,36.78,0,0,0-3.71-10.88c-.41-.79-.84-1.58-1.33-2.34a.71.71,0,0,0-.22.43,57.12,57.12,0,0,1-4.66,11.4,55.86,55.86,0,0,1-9.06,12.32,53.41,53.41,0,0,1-5,4.52,3.71,3.71,0,0,0-.41.28c-.86.7-1.78,1.32-2.68,2a27.14,27.14,0,0,1-3.23,1.87,10.24,10.24,0,0,1-1.92.89,1,1,0,0,1,.38-.47,74.37,74.37,0,0,0,5.53-5.27,10.79,10.79,0,0,0,1.55-1.75h0a3.71,3.71,0,0,0,.85-1,1.63,1.63,0,0,1,.17-.2,1.36,1.36,0,0,0,.49-.62h0a.75.75,0,0,0,.42-.48h0a.36.36,0,0,0,.27-.33.31.31,0,0,0,.18-.22,13,13,0,0,0,1.62-2.08l.09-.11a1.42,1.42,0,0,0,.42-.58h0l.11-.17h0a1,1,0,0,0,.38-.53h0a.3.3,0,0,0,.2-.29h0a1.24,1.24,0,0,0,.4-.58h0a.36.36,0,0,0,.19-.3h0A12.43,12.43,0,0,0,132,97.76a0,0,0,0,0,0-.05,2,2,0,0,0,.49-.83h0a.83.83,0,0,0,.29-.5h0a3.23,3.23,0,0,0,.6-1.09h0a.49.49,0,0,0,.2-.4h0a.47.47,0,0,0,.21-.39h0a5.66,5.66,0,0,0,.78-1.6h0a1,1,0,0,0,.3-.6h0a.79.79,0,0,0,.22-.48h0l.05-.13.06-.13A8.24,8.24,0,0,0,136,90a37.47,37.47,0,0,0,1.58-4.38l.07-.21c.06-.15.14-.3.19-.46a62,62,0,0,0,1.91-7.74,76.45,76.45,0,0,0,1.28-12,69.76,69.76,0,0,0-.4-8.91c0-.34.07-.74-.26-1h0l-.09-.1-.1-.11L140,55l-.09-.1a6.27,6.27,0,0,0-1.11-1.19l-.2-.2-.1-.1h0l-.09-.1-.2-.2a2.83,2.83,0,0,0-.88-.94s0,0,0-.05a.1.1,0,0,0-.09-.11l-.1-.1c0-.06,0-.1-.09-.1h0l-.09-.1h0l-.1-.1h0a.5.5,0,0,0-.29-.3l-.09-.1a1.69,1.69,0,0,0-.63-.67h0a.89.89,0,0,0-.38-.41l-.3-.3-.1-.1h0l-.1-.1-.19-.21a3.25,3.25,0,0,0-.88-.93.06.06,0,0,0,0-.06.82.82,0,0,0-.4-.4l-.19-.2-.11-.1h0l-.09-.11h0l-.09-.11h0a6.13,6.13,0,0,0-1-1.08h0l-.1-.1-.1-.1-.91-1-.12.1,1.08,2.37s0,0,0,.06a4,4,0,0,0,.48,1.24,0,0,0,0,0,0,.06,1,1,0,0,0,.21.59h0a1.74,1.74,0,0,0,.07.29,47.3,47.3,0,0,1,2.28,10.26,49.66,49.66,0,0,1,.23,5,51.43,51.43,0,0,1-.43,5.81l0,.2c-.16.81-.33,1.62-.48,2.44-.24,1.33-.67,2.62-1,4a0,0,0,0,0,0,.06,1.09,1.09,0,0,0-.19.53,36.74,36.74,0,0,0-11.87,3.44,29.82,29.82,0,0,0-6.72,4.45l-.11.09h0l-.1.09,0,0,0,0a.18.18,0,0,0-.18.13l-.3.3-.11.1-.1.07-.1.11h0l-.09.1h0l-.09.1h0l-.09.1h0l-.1.09h0l-.09.09h0l-.09.1h0a.7.7,0,0,0-.39.4h0l-.09.09h0a.63.63,0,0,0-.27.31,1.32,1.32,0,0,0-.49.53.48.48,0,0,0-.32.37h0a.09.09,0,0,0-.09.1h0c-.17.13-.36.25-.4.49h0a.8.8,0,0,0-.4.5h0a.52.52,0,0,0-.3.39h0c-.06,0-.1,0-.09.11h0a8.36,8.36,0,0,0-1.16,1.55c-3.1,4.71-4.85,10-6.31,15.36a39.89,39.89,0,0,0-1.11,7.14,32.28,32.28,0,0,1-1.39,7.08,40.25,40.25,0,0,1-6.64,12.44,56.2,56.2,0,0,1-5.3,5.83c-.13.13-.33.22-.34.5h.82c2.55,0,5.09-.15,7.62-.38a82.77,82.77,0,0,0,9.66-1.46,81.74,81.74,0,0,0,10.84-3.11q4.31-1.59,8.47-3.55a24,24,0,0,0,3.17-1.68l.19-.1a.78.78,0,0,1,.13-.24.78.78,0,0,0-.13.24,2,2,0,0,0,.83-.48,0,0,0,0,0,.06,0,.11.11,0,0,0,.13-.08.68.68,0,0,0,.38-.21.73.73,0,0,0,.49-.31h0a4.47,4.47,0,0,0,1.3-.8l.11-.08.14-.09.17-.11a.69.69,0,0,0,.42-.29.06.06,0,0,0,.06,0,1.26,1.26,0,0,0,.58-.41l.24-.17.1-.09h0a5.31,5.31,0,0,0,1.38-1h0a.58.58,0,0,0,.39-.31h0a1.42,1.42,0,0,0,.6-.49h0l.11-.1a.72.72,0,0,0,.38-.31l.11-.08h0l.1-.09,0,0,0,0,.12-.09.26-.23a.1.1,0,0,0,.11-.09h0a.09.09,0,0,1,0-.07.09.09,0,0,0,0,.07l.1-.09h0l.1-.1h0l.1-.1h0a.24.24,0,0,0,.22-.19l.47-.41h0l.1-.1h0l.11-.1.09-.09.1-.11-.05,0,.05,0a.24.24,0,0,1,0-.07.24.24,0,0,0,0,.07l.11-.1.09-.1.1-.1h0l.11-.1.09-.1h0l.1-.1h0l.1-.1h0l.1-.1h0l.1-.1h0l.1-.1a.09.09,0,0,0-.07,0,.09.09,0,0,1,.07,0h0l.1-.1h0a.39.39,0,0,0,.3-.3h0l.09-.09.11-.11c.12-.11.25-.22.36-.34a41.24,41.24,0,0,0,6-8A28.15,28.15,0,0,0,149.56,94.47Z" transform="translate(0 0)"/></svg>