<svg id="Capa_1" data-name="Capa 1" xmlns="http://www.w3.org/2000/svg" viewBox="0 0 150 113.8"><defs><style>.cls-1{fill:#f7f99b;}</style></defs><path class="cls-1" d="M0,86,34.81,58.72v16.6c10.08-.69,19.13-3,27.11-8.51a6.72,6.72,0,0,0,2.58-4.63c.25-8.93.12-17.86.12-27.31H47.94L75.25,0l27.08,34.55H86.08c0,10-.07,19.4.08,28.83a4.94,4.94,0,0,0,1.89,3.34c8,5.83,16.93,8.64,27.1,9V59.25L150,86.55,115.22,113.8v-16c-7.28-1.5-14.33-2.36-21-4.51-5.89-1.9-11.28-5.3-17-7.86-1.22-.55-3.18-1-4.13-.39A76.6,76.6,0,0,1,36.48,96.38a9.51,9.51,0,0,0-1.49.4v16.59Z"/></svg>