<svg id="Capa_1" data-name="Capa 1" xmlns="http://www.w3.org/2000/svg" viewBox="0 0 149.65 150"><defs><style>.cls-1{fill:#9b9b9b;}</style></defs><path class="cls-1" d="M67.28,150c-1.59-.09-3.18-.23-4.78-.26-7.17-.13-14.35,0-21.5-.38a41.07,41.07,0,0,1-23.76-9,42.24,42.24,0,0,1-16.37-28A114.77,114.77,0,0,1,.21,97.68C.07,88,0,78.27,0,68.57c0-9.22.1-18.44.53-27.64A40.73,40.73,0,0,1,10,16.75c7.74-9.53,17.81-15,30-16C47.35.1,54.8.4,62.21.26c1.5,0,3-.17,4.49-.26H83.1c2.14.09,4.27.23,6.4.27,6.78.14,13.58-.07,20.34.42a40.94,40.94,0,0,1,23.42,9.47c9.05,7.45,14.63,16.94,15.7,28.64.67,7.27.6,14.61.65,21.93q.12,18.95-.08,37.89a106.85,106.85,0,0,1-.85,14.87c-2.51,16.69-15.76,30.74-32.23,34.75-5.85,1.43-11.8,1.21-17.73,1.41-4.92.17-9.86.11-14.79.17a7.45,7.45,0,0,0-1.12.18ZM75,14.41v-.05c-9.61,0-19.22,0-28.83,0a41.1,41.1,0,0,0-6.57.36A29.66,29.66,0,0,0,14.29,44.56c0,4.78-.22,9.56-.21,14.34,0,15.76.05,31.52.31,47.27A31.08,31.08,0,0,0,16.15,116c4.32,12.07,15.23,19.47,28.32,19.61,5.07.06,10.14.22,15.22.2q23.13-.06,46.26-.24a28.8,28.8,0,0,0,17.88-6.13c6.82-5.33,10.9-12.29,11.41-21,.43-7.39.54-14.82.55-22.23,0-12.69-.14-25.37-.26-38.06a59.14,59.14,0,0,0-.36-8.32,29.42,29.42,0,0,0-29.1-25.42C95.73,14.26,85.38,14.41,75,14.41Z" transform="translate(0 0)"/><path class="cls-1" d="M74.76,113.46a38.48,38.48,0,1,1,38.62-37.93A38.48,38.48,0,0,1,74.76,113.46ZM50.31,74.93c.28,14,11.32,24.94,25,24.61a24.56,24.56,0,1,0-25-24.61Z" transform="translate(0 0)"/><path class="cls-1" d="M113.6,27.2a8.63,8.63,0,0,1,8.76,8.48,8.84,8.84,0,0,1-8.64,8.85A8.7,8.7,0,0,1,105,36,8.39,8.39,0,0,1,113.6,27.2Z" transform="translate(0 0)"/></svg>