<svg id="Capa_1" data-name="Capa 1" xmlns="http://www.w3.org/2000/svg" viewBox="0 0 126.83 150"><defs><style>.cls-1{fill:#f7f99b;}</style></defs><path class="cls-1" d="M64,150c-2.52-1.07-4.26-2.71-4.1-5.69a7,7,0,0,1,.38-1.86C65.4,127.28,70.44,112.07,75.78,97c1.36-3.85,3.7-7.35,5.62-11.08,4.39,1.82,8.44,3.49,12.46,5.21a1.26,1.26,0,0,1,.53,1.08c-1,3.75-1.72,7.68-3.35,11.17-6.77,14.46-13.85,28.79-20.79,43.18A6.89,6.89,0,0,1,66.33,150Z" transform="translate(0 0)"/><path class="cls-1" d="M95.36,107.94c.57-1.38,1.25-2.72,1.68-4.14,1-3.16,1.85-6.36,2.7-9.55a2.92,2.92,0,0,1,1.57-2.07c4.94-2.63,8.1-6.87,10.47-11.83a23.92,23.92,0,0,0,.72-19.84,40.55,40.55,0,0,1-1.7-5.13A4.55,4.55,0,0,1,111,52.6c1.26-2.62,1.27-5.11-.46-7.44s-4.19-2.87-6.93-2.52C94.07,43.9,87.11,49.2,81.91,57A33.87,33.87,0,0,0,75.8,76.09a49.6,49.6,0,0,0,.94,6.33,2.55,2.55,0,0,1-.1,1.63c-5.78,8.64-8.4,18.6-11.78,28.24l-1,2.76a.76.76,0,0,1-.17.23c-.09,0-.19.11-.27.1-4.08-1.06-7.14.45-9.47,3.78-3.19,4.55-6.29,9.17-9.57,13.66-2.9,4-6.53,7.14-11.36,8.58-6.2,1.84-11.83.3-16.77-3.56-8.18-6.38-12.77-15-14.65-25C-1.28,97.17-.16,81.71,3.85,66.42S14.63,37.07,25.06,25C36,12.33,49.52,3.86,66.19,1.09,78.82-1,91.32-.24,103.25,4.78c11.11,4.68,18.29,13,21.62,24.61,2.77,9.66,2.38,19.4.19,29.1a91.76,91.76,0,0,1-22.63,43.27c-2.12,2.27-4.52,4.27-6.8,6.39ZM26.72,48.88A10.85,10.85,0,1,0,37.49,38.06,10.89,10.89,0,0,0,26.72,48.88ZM48.45,27.1A10.85,10.85,0,1,0,59.26,16.3,10.89,10.89,0,0,0,48.45,27.1ZM36.27,77.4A10.7,10.7,0,0,0,24.34,67.12a10.93,10.93,0,0,0-9.72,11.09,10.83,10.83,0,1,0,21.65-.81ZM82,24.79A10.86,10.86,0,1,0,92.81,13.93,10.91,10.91,0,0,0,82,24.79Z" transform="translate(0 0)"/><path class="cls-1" d="M103.73,48.11c2.32-.11,2.94.61,2.19,1.92-1.59,2.77-1.15,5.53-.23,8.32.82,2.5,1.83,4.95,2.47,7.49,1.42,5.63-.35,10.68-3.31,15.4a15.37,15.37,0,0,1-8.33,7,2.73,2.73,0,0,1-1.65,0q-5.69-2.28-11.33-4.69a2.82,2.82,0,0,1-1.27-1.26,14.4,14.4,0,0,1-1.17-8.71c1.29-8.36,5-15.43,11.72-20.71A20.82,20.82,0,0,1,103.73,48.11Zm.35,26.05a2.46,2.46,0,0,0-2-2.84,2.25,2.25,0,0,0-2.52,1.94,8.81,8.81,0,0,1-3.93,5.9,3,3,0,0,0-.65.57,2.19,2.19,0,0,0-.2,2.83,2,2,0,0,0,2.82.76A12.84,12.84,0,0,0,104.08,74.16Z" transform="translate(0 0)"/></svg>