<svg id="Capa_1" data-name="Capa 1" xmlns="http://www.w3.org/2000/svg" viewBox="0 0 150 150"><defs><style>.cls-1{fill:#f7f99b;}</style></defs><path class="cls-1" d="M74.76,150C34.91,150.71-.39,117.11,0,74.53A75.15,75.15,0,0,1,74,0c42.46-.61,77.59,34.86,75.92,78.28C148.47,116.85,115.68,150.83,74.76,150ZM41,59.32a22.54,22.54,0,0,0-3.79.33,15.51,15.51,0,0,0-9.33,6.65,16.09,16.09,0,0,0,8.76,24.47,15.52,15.52,0,0,0,13.38-1.85c.66-.43,1.27-.89,2.25-.4,9.62,4.8,19.27,9.53,28.89,14.33a2.25,2.25,0,0,1,1,1.49,19.6,19.6,0,0,0,3.28,8.85,16.11,16.11,0,0,0,29-7.62A15.81,15.81,0,0,0,105.27,89C99,86.22,93.07,87,87.8,91.59c-.67.58-1.18,1.28-2.36.69-9.08-4.55-18.19-9-27.29-13.51a1.71,1.71,0,0,1-.85-.7c-.43-1,.55-3.56,1.52-4.07C68,69.18,77.14,64.38,86.28,59.52a2.15,2.15,0,0,1,2.62.18,16.18,16.18,0,1,0-1.43-24.82A17.42,17.42,0,0,0,82.27,47c0,.95.09,1.85-1.09,2.45Q67.91,56.27,54.7,63.28A2.15,2.15,0,0,1,51.85,63,14.33,14.33,0,0,0,41,59.32Z" transform="translate(0 0)"/></svg>